<svg width="257" height="47" viewBox="0 0 257 47" fill="none" xmlns="http://www.w3.org/2000/svg">
<g filter="url(#filter0_d_422_3)">
<path d="M255 42.5852H0L10.9406 21.5852L0 0.585205H255L245.743 21.5852L255 42.5852Z" fill="#003D18"/>
</g>
<path d="M44.9658 32.4502C44.3125 32.9869 43.2741 33.5235 41.8508 34.0602C40.4275 34.5969 38.8758 34.8652 37.1958 34.8652C34.5125 34.8652 32.1791 34.2819 30.1958 33.1152C28.2125 31.9485 26.6958 30.3852 25.6458 28.4252C24.5958 26.4419 24.0708 24.2719 24.0708 21.9152C24.0708 19.3252 24.5958 17.0152 25.6458 14.9852C26.6958 12.9552 28.1658 11.3802 30.0558 10.2602C31.9458 9.11687 34.1275 8.5452 36.6008 8.5452C38.1641 8.5452 39.6108 8.7552 40.9408 9.1752C42.2708 9.5952 43.4375 10.1202 44.4408 10.7502L42.4458 15.5452C40.6025 14.1452 38.7125 13.4452 36.7758 13.4452C35.4691 13.4452 34.2441 13.8069 33.1008 14.5302C31.9575 15.2535 31.0475 16.2452 30.3708 17.5052C29.6941 18.7419 29.3558 20.1185 29.3558 21.6352C29.3558 23.2919 29.6708 24.7502 30.3008 26.0102C30.9308 27.2469 31.8291 28.2152 32.9958 28.9152C34.1625 29.6152 35.5275 29.9652 37.0908 29.9652C38.3508 29.9652 39.4825 29.7669 40.4858 29.3702C41.4891 28.9502 42.2825 28.4602 42.8658 27.9002L44.9658 32.4502ZM67.6201 8.8252V13.7252H55.1251V19.2202H66.1851V24.1202H55.1251V29.6852H68.1101V34.5852H50.0501V8.8252H67.6201ZM87.2556 34.5852L81.8306 26.3952H78.4356V34.5852H73.3606V8.8252H81.1656C84.3623 8.8252 86.8356 9.60687 88.5856 11.1702C90.359 12.7102 91.2456 14.8219 91.2456 17.5052C91.2456 19.0919 90.9073 20.5852 90.2306 21.9852C89.5773 23.3619 88.5623 24.4469 87.1856 25.2402L93.1706 34.5852H87.2556ZM78.4356 21.4952H82.0406C83.4173 21.4952 84.4206 21.0985 85.0506 20.3052C85.6806 19.4885 85.9956 18.6135 85.9956 17.6802C85.9956 16.7469 85.7273 15.8602 85.1906 15.0202C84.654 14.1569 83.6156 13.7252 82.0756 13.7252H78.4356V21.4952ZM102.43 8.8252V34.5852H97.3548V8.8252H102.43ZM135.608 7.7752V34.5852H130.533V22.3002L122.133 34.2352H122.063L113.978 23.0702V34.5852H109.078V7.7752H109.113L122.168 26.2902L135.538 7.7752H135.608ZM140.692 21.7402C140.692 19.4069 141.275 17.2252 142.442 15.1952C143.632 13.1652 145.23 11.5552 147.237 10.3652C149.267 9.15187 151.46 8.5452 153.817 8.5452C156.174 8.5452 158.355 9.15187 160.362 10.3652C162.392 11.5552 164.002 13.1652 165.192 15.1952C166.405 17.2252 167.012 19.4069 167.012 21.7402C167.012 24.1202 166.405 26.3135 165.192 28.3202C164.002 30.3269 162.392 31.9252 160.362 33.1152C158.355 34.2819 156.174 34.8652 153.817 34.8652C151.437 34.8652 149.244 34.2819 147.237 33.1152C145.23 31.9252 143.632 30.3269 142.442 28.3202C141.275 26.3135 140.692 24.1202 140.692 21.7402ZM145.942 21.7402C145.942 23.2335 146.292 24.6102 146.992 25.8702C147.715 27.1302 148.684 28.1335 149.897 28.8802C151.134 29.6035 152.499 29.9652 153.992 29.9652C155.439 29.9652 156.757 29.6035 157.947 28.8802C159.137 28.1335 160.07 27.1419 160.747 25.9052C161.424 24.6452 161.762 23.2569 161.762 21.7402C161.762 20.2002 161.412 18.8002 160.712 17.5402C160.012 16.2802 159.055 15.2885 157.842 14.5652C156.652 13.8185 155.322 13.4452 153.852 13.4452C152.382 13.4452 151.04 13.8185 149.827 14.5652C148.637 15.2885 147.692 16.2802 146.992 17.5402C146.292 18.8002 145.942 20.2002 145.942 21.7402ZM195.277 8.8252V35.6352H195.137L177.112 19.3602L177.217 34.5852H172.072V7.8102H172.282L190.272 24.3302L190.167 8.8252H195.277ZM206.985 8.8252V34.5852H201.91V8.8252H206.985ZM226.374 29.5452H217.834L215.734 34.5852H210.729L222.349 7.8102H222.629L234.249 34.5852H228.369L226.374 29.5452ZM224.694 25.2752L222.209 19.0102L219.619 25.2752H224.694Z" fill="#FAFAFA"/>
<defs>
<filter id="filter0_d_422_3" x="0" y="0.585205" width="257" height="46" filterUnits="userSpaceOnUse" color-interpolation-filters="sRGB">
<feFlood flood-opacity="0" result="BackgroundImageFix"/>
<feColorMatrix in="SourceAlpha" type="matrix" values="0 0 0 0 0 0 0 0 0 0 0 0 0 0 0 0 0 0 127 0" result="hardAlpha"/>
<feOffset dx="2" dy="4"/>
<feComposite in2="hardAlpha" operator="out"/>
<feColorMatrix type="matrix" values="0 0 0 0 0 0 0 0 0 0 0 0 0 0 0 0 0 0 0.25 0"/>
<feBlend mode="normal" in2="BackgroundImageFix" result="effect1_dropShadow_422_3"/>
<feBlend mode="normal" in="SourceGraphic" in2="effect1_dropShadow_422_3" result="shape"/>
</filter>
</defs>
</svg>
