<svg width="375" height="158" viewBox="0 0 375 158" fill="none" xmlns="http://www.w3.org/2000/svg">
<path d="M101.543 5.6473V34.6274H27.6437V67.1266H93.056V96.1067H27.6437V129.02H104.441V158H-2.37147V5.6473H101.543ZM231.129 158L219.951 143.096C215.397 148.478 209.67 152.756 202.77 155.93C195.87 158.966 187.728 160.484 178.344 160.484C168.822 160.484 160.127 158.483 152.261 154.481C144.533 150.479 138.392 144.959 133.838 137.921C129.422 130.745 127.214 122.672 127.214 113.702C127.214 103.49 130.733 94.3127 137.771 86.1707C144.947 77.8906 153.848 71.9566 164.475 68.3686L164.061 67.7476C160.887 63.6076 157.919 58.6395 155.159 52.8435C152.537 47.0475 151.226 41.3205 151.226 35.6624C151.226 29.8664 152.675 24.2774 155.573 18.8954C158.609 13.3753 163.095 8.89032 169.029 5.4403C175.101 1.85229 182.346 0.0582874 190.764 0.0582874C200.01 0.0582874 208.359 1.9903 215.811 5.85431C223.401 9.58033 229.611 14.4794 234.441 20.5514L219.33 40.6305C214.638 35.6624 210.36 31.8674 206.496 29.2454C202.77 26.6234 199.113 25.3124 195.525 25.3124C191.109 25.3124 187.797 26.6234 185.589 29.2454C183.381 31.7294 182.277 34.8344 182.277 38.5605C182.277 42.4245 184.623 47.8755 189.315 54.9135L216.846 91.9667L227.196 65.2636H254.52L234.441 115.772L265.905 158H231.129ZM182.484 133.574C192.42 133.574 199.734 129.779 204.426 122.189L179.586 88.8617C173.514 89.4137 168.408 91.9667 164.268 96.5207C160.265 101.075 158.264 106.25 158.264 112.046C158.264 118.394 160.542 123.569 165.096 127.571C169.788 131.573 175.584 133.574 182.484 133.574ZM388.084 5.6473V34.6274H322.879V69.1966H379.39V98.1767H322.879V158H292.864V5.6473H388.084Z" fill="black"/>
</svg>
