<svg width="1440" height="160" viewBox="0 0 1440 160" fill="none" xmlns="http://www.w3.org/2000/svg">
<path d="M99.603 8.04421V37.8999H23.4709V71.381H90.8595V101.237H23.4709V135.144H102.589V165H-7.45109V8.04421H99.603ZM167.635 8.04421V135.144H241.421V165H136.713V8.04421H167.635ZM382.516 8.04421V37.8999H306.384V71.381H373.772V101.237H306.384V135.144H385.501V165H275.462V8.04421H382.516ZM587.499 165L575.983 149.646C571.292 155.19 565.392 159.598 558.283 162.867C551.175 165.995 542.787 167.559 533.119 167.559C523.309 167.559 514.353 165.498 506.249 161.375C498.287 157.252 491.961 151.565 487.269 144.314C482.72 136.921 480.445 128.604 480.445 119.363C480.445 108.843 484.07 99.3885 491.321 91.0005C498.714 82.4703 507.884 76.3569 518.831 72.6605L518.404 72.0208C515.134 67.7557 512.078 62.6375 509.234 56.6664C506.533 50.6952 505.183 44.7952 505.183 38.9662C505.183 32.9951 506.675 27.2372 509.661 21.6925C512.789 16.0057 517.409 11.3852 523.523 7.83096C529.778 4.13454 537.242 2.28634 545.914 2.28634C555.44 2.28634 564.041 4.27672 571.718 8.25748C579.538 12.0961 585.935 17.1431 590.911 23.3986L575.344 44.0843C570.51 38.9662 566.102 35.0565 562.122 32.3553C558.283 29.6541 554.516 28.3035 550.819 28.3035C546.27 28.3035 542.858 29.6541 540.583 32.3553C538.308 34.9144 537.171 38.1132 537.171 41.9518C537.171 45.9325 539.588 51.5483 544.422 58.7989L572.784 96.9716L583.447 69.4617H611.597L590.911 121.496L623.326 165H587.499ZM537.384 139.836C547.62 139.836 555.155 135.926 559.989 128.107L534.399 93.7728C528.143 94.3415 522.883 96.9716 518.618 101.663C514.495 106.355 512.433 111.686 512.433 117.657C512.433 124.197 514.779 129.529 519.471 133.651C524.304 137.774 530.276 139.836 537.384 139.836ZM820.679 8.04421V37.8999H753.503V73.5135H811.722V103.369H753.503V165H722.581V8.04421H820.679ZM937.246 165L904.191 115.098H883.506V165H852.584V8.04421H900.139C919.617 8.04421 934.687 12.8069 945.35 22.3323C956.154 31.7155 961.557 44.5819 961.557 60.9315C961.557 70.5991 959.495 79.6979 955.372 88.2282C951.392 96.6162 945.207 103.227 936.819 108.061L973.286 165H937.246ZM883.506 85.2426H905.471C913.859 85.2426 919.972 82.8257 923.811 77.9919C927.649 73.016 929.569 67.6846 929.569 61.9978C929.569 56.311 927.934 50.9085 924.664 45.7904C921.394 40.5301 915.067 37.8999 905.684 37.8999H883.506V85.2426ZM1078.54 134.291H1026.5L1013.71 165H983.212L1054.01 1.85982H1055.72L1126.52 165H1090.69L1078.54 134.291ZM1068.3 108.274L1053.16 70.1015L1037.38 108.274H1068.3ZM1292.92 8.04421V171.398H1292.07L1182.24 72.234L1182.88 165H1151.53V1.85982H1152.81L1262.42 102.516L1261.79 8.04421H1292.92ZM1377.91 135.144H1458.31V165H1324.81L1404.57 37.8999H1356.8C1351.96 37.8999 1347.27 36.4072 1342.72 33.4216C1338.32 30.2938 1336.11 26.6685 1336.11 22.5456V0.153774H1364.48V3.13935C1364.48 5.55624 1364.76 7.04903 1365.33 7.61771C1365.9 8.04422 1366.82 8.25748 1368.1 8.25748C1369.38 8.1153 1370.45 8.04421 1371.3 8.04421H1458.52L1377.91 135.144Z" fill="black"/>
</svg>
