<svg width="277" height="46" viewBox="0 0 277 46" fill="none" xmlns="http://www.w3.org/2000/svg">
<g filter="url(#filter0_d_422_4)">
<path d="M275 42H0L11.7987 21L0 0H275L265.017 21L275 42Z" fill="#003D18"/>
</g>
<path d="M104.044 8.24V13.14H93.019V18.985H102.574V23.885H93.019V34H87.944V8.24H104.044ZM126.5 8.24V13.14H114.005V18.635H125.065V23.535H114.005V29.1H126.99V34H108.93V8.24H126.5ZM145.996 14.47C143.756 13.2333 141.808 12.615 140.151 12.615C139.031 12.615 138.156 12.8367 137.526 13.28C136.919 13.7233 136.616 14.3883 136.616 15.275C136.616 16.0917 137.059 16.815 137.946 17.445C138.856 18.0517 140.058 18.635 141.551 19.195C142.764 19.6383 143.803 20.1517 144.666 20.735C145.529 21.295 146.241 22.0767 146.801 23.08C147.384 24.0833 147.676 25.355 147.676 26.895C147.676 28.225 147.326 29.4617 146.626 30.605C145.949 31.725 144.946 32.6233 143.616 33.3C142.286 33.9533 140.699 34.28 138.856 34.28C137.316 34.28 135.788 34.0583 134.271 33.615C132.754 33.1483 131.343 32.4483 130.036 31.515L132.276 27.56C133.163 28.2133 134.178 28.75 135.321 29.17C136.464 29.59 137.491 29.8 138.401 29.8C139.474 29.8 140.408 29.5783 141.201 29.135C141.994 28.6683 142.391 27.9217 142.391 26.895C142.391 25.565 141.143 24.41 138.646 23.43C137.176 22.8467 135.951 22.2867 134.971 21.75C133.991 21.2133 133.139 20.4433 132.416 19.44C131.716 18.4367 131.366 17.1767 131.366 15.66C131.366 13.4433 132.089 11.6583 133.536 10.305C135.006 8.95167 136.954 8.21667 139.381 8.1C141.294 8.1 142.893 8.32167 144.176 8.765C145.459 9.185 146.708 9.79167 147.921 10.585L145.996 14.47ZM168.256 8.24V13.14H161.991V34H156.916V13.14H150.896V8.24H168.256ZM183.809 28.96H175.269L173.169 34H168.164L179.784 7.225H180.064L191.684 34H185.804L183.809 28.96ZM182.129 24.69L179.644 18.425L177.054 24.69H182.129Z" fill="#FAFAFA"/>
<defs>
<filter id="filter0_d_422_4" x="0" y="0" width="277" height="46" filterUnits="userSpaceOnUse" color-interpolation-filters="sRGB">
<feFlood flood-opacity="0" result="BackgroundImageFix"/>
<feColorMatrix in="SourceAlpha" type="matrix" values="0 0 0 0 0 0 0 0 0 0 0 0 0 0 0 0 0 0 127 0" result="hardAlpha"/>
<feOffset dx="2" dy="4"/>
<feComposite in2="hardAlpha" operator="out"/>
<feColorMatrix type="matrix" values="0 0 0 0 0 0 0 0 0 0 0 0 0 0 0 0 0 0 0.25 0"/>
<feBlend mode="normal" in2="BackgroundImageFix" result="effect1_dropShadow_422_4"/>
<feBlend mode="normal" in="SourceGraphic" in2="effect1_dropShadow_422_4" result="shape"/>
</filter>
</defs>
</svg>
