<svg width="257" height="46" viewBox="0 0 257 46" fill="none" xmlns="http://www.w3.org/2000/svg">
<g filter="url(#filter0_d_422_5)">
<path d="M255 42H0L10.9406 21L0 0H255L245.743 21L255 42Z" fill="#003D18"/>
</g>
<path d="M79.4798 34L74.0548 25.81H70.6598V34H65.5848V8.24H73.3898C76.5864 8.24 79.0598 9.02166 80.8098 10.585C82.5831 12.125 83.4698 14.2367 83.4698 16.92C83.4698 18.5067 83.1314 20 82.4548 21.4C81.8014 22.7767 80.7864 23.8617 79.4098 24.655L85.3948 34H79.4798ZM70.6598 20.91H74.2648C75.6414 20.91 76.6448 20.5133 77.2748 19.72C77.9048 18.9033 78.2198 18.0283 78.2198 17.095C78.2198 16.1617 77.9514 15.275 77.4148 14.435C76.8781 13.5717 75.8398 13.14 74.2998 13.14H70.6598V20.91ZM107.149 8.24V13.14H94.6539V18.635H105.714V23.535H94.6539V29.1H107.639V34H89.5789V8.24H107.149ZM133.784 31.41C133.388 31.83 132.676 32.2733 131.649 32.74C130.646 33.1833 129.526 33.5567 128.289 33.86C127.076 34.14 125.968 34.28 124.964 34.28C122.234 34.28 119.831 33.755 117.754 32.705C115.701 31.6317 114.114 30.1617 112.994 28.295C111.874 26.405 111.314 24.2583 111.314 21.855C111.314 18.845 111.909 16.3017 113.099 14.225C114.289 12.125 115.888 10.5617 117.894 9.535C119.901 8.485 122.118 7.96 124.544 7.96C126.108 7.96 127.578 8.135 128.954 8.485C130.331 8.835 131.544 9.29 132.594 9.85L130.949 14.575C130.273 14.2017 129.339 13.8633 128.149 13.56C126.983 13.2333 126.003 13.07 125.209 13.07C122.409 13.07 120.263 13.77 118.769 15.17C117.299 16.57 116.564 18.6467 116.564 21.4C116.564 22.9867 116.926 24.375 117.649 25.565C118.373 26.7317 119.376 27.63 120.659 28.26C121.966 28.89 123.448 29.205 125.104 29.205C126.691 29.205 127.869 28.9833 128.639 28.54V25.425H124.194V20.525H133.784V31.41ZM152.29 28.96H143.75L141.65 34H136.645L148.265 7.225H148.545L160.165 34H154.285L152.29 28.96ZM150.61 24.69L148.125 18.425L145.535 24.69H150.61ZM168.995 8.24V29.1H181.105V34H163.92V8.24H168.995ZM191.417 8.24V34H186.342V8.24H191.417Z" fill="#FAFAFA"/>
<defs>
<filter id="filter0_d_422_5" x="0" y="0" width="257" height="46" filterUnits="userSpaceOnUse" color-interpolation-filters="sRGB">
<feFlood flood-opacity="0" result="BackgroundImageFix"/>
<feColorMatrix in="SourceAlpha" type="matrix" values="0 0 0 0 0 0 0 0 0 0 0 0 0 0 0 0 0 0 127 0" result="hardAlpha"/>
<feOffset dx="2" dy="4"/>
<feComposite in2="hardAlpha" operator="out"/>
<feColorMatrix type="matrix" values="0 0 0 0 0 0 0 0 0 0 0 0 0 0 0 0 0 0 0.25 0"/>
<feBlend mode="normal" in2="BackgroundImageFix" result="effect1_dropShadow_422_5"/>
<feBlend mode="normal" in="SourceGraphic" in2="effect1_dropShadow_422_5" result="shape"/>
</filter>
</defs>
</svg>
